<svg xmlns="http://www.w3.org/2000/svg" width="14" height="16" viewBox="0 0 14 16"><g><g><path fill="#f8dd5a" d="M2.5-.001h9a2.5 2.5 0 0 1 2.5 2.5v11a2.5 2.5 0 0 1-2.5 2.5h-9A2.5 2.5 0 0 1 0 13.5v-11A2.5 2.5 0 0 1 2.5 0zm-1.5 9v4a2 2 0 0 0 2 2h8a2 2 0 0 0 2-2V7h-1v.268a1.892 1.892 0 0 0-.025-.014c.015.163.022.329.022.496 0 2.898-2.237 5.248-4.997 5.248s-4.998-2.35-4.998-5.248c0-.167.008-.333.022-.496L2 7.267v-.268H1v2zm2.004-1.002c0 2.208 1.79 4 3.996 4a3.998 3.998 0 0 0 3.995-4c0-2.21-1.789-4.001-3.995-4.001a3.998 3.998 0 0 0-3.996 4zM10 3.999h2v-2h-2z"/></g></g></svg>