<svg xmlns="http://www.w3.org/2000/svg" width="16" height="17" viewBox="0 0 16 17"><g><g><path fill="#f8dd5a" d="M8 .496A8.003 8.003 0 0 0 4.787 15.83c-.022-.559-.004-1.23.14-1.838l1.03-4.36S5.7 9.12 5.7 8.364c0-1.185.687-2.07 1.543-2.07.728 0 1.08.546 1.08 1.2 0 .732-.467 1.827-.707 2.84-.2.85.426 1.542 1.263 1.542 1.517 0 2.538-1.948 2.538-4.255 0-1.754-1.182-3.067-3.33-3.067-2.428 0-3.94 1.81-3.94 3.832 0 .698.205 1.19.527 1.57.148.175.169.245.115.446-.038.147-.126.502-.163.642-.053.203-.217.276-.4.2-1.119-.456-1.64-1.68-1.64-3.057 0-2.273 1.918-4.999 5.72-4.999 3.056 0 5.067 2.211 5.067 4.584 0 3.14-1.746 5.485-4.318 5.485-.864 0-1.677-.467-1.955-.997 0 0-.465 1.843-.563 2.2-.17.617-.502 1.233-.806 1.714A8.003 8.003 0 1 0 8 .496z"/></g></g></svg>