<svg xmlns="http://www.w3.org/2000/svg" width="16" height="13" viewBox="0 0 16 13"><g><g><path fill="#f8dd5a" d="M16 1.495l-1.5 1.497v.25c0 .273-.044.534-.108.788-.035 2.058-.693 4.788-3.392 6.943-5.31 4.238-11 .498-11 .498 4.5 0 4.5-1.496 4.5-1.496-1 0-3-1.995-3-1.995.5.499 1.5 0 1.5 0C.5 6.483.5 4.987.5 4.987c.5.499 1.5 0 1.5 0-2.5-1.995-1-4.49-1-4.49.5 2.495 7 3.492 7 3.492l.083-.041C8.032 3.72 8 3.236 8 2.992c0-1.79 1.455-2.993 3.25-2.993.988 0 1.862.45 2.458 1.143L14 .997l1.5-.998-1 1.995z"/></g></g></svg>