<svg xmlns="http://www.w3.org/2000/svg" width="26" height="30" viewBox="0 0 26 30"><g><g><path fill="#f9de5a" d="M13.878.422L25.496 6.86a2 2 0 0 1 .347 2.363c.101.238.157.5.157.776V21c0 1.105.104 2-1 2l-11 7a1.99 1.99 0 0 1-1-.268A1.99 1.99 0 0 1 12 30L2 23a2 2 0 0 1-2-2V10c0-.285.06-.555.166-.8a2 2 0 0 1 .36-2.34L12.05.422c1.48-.713.518-.635 1.828 0zM2 8l10.582 6.41c.147.045.287.107.418.182.143-.083.297-.148.46-.194l10.52-6.385.02-.013-11.022-6.163zm0 13l10 7V16.323L2 9.998zm22-11l-10 6.325V28l10-7z"/></g></g></svg>