<svg xmlns="http://www.w3.org/2000/svg" width="28" height="32" viewBox="0 0 28 32"><g><g><path fill="#fff" d="M28 11.996v18a2 2 0 0 1-2 2.001H2a2 2 0 0 1-2-2v-18c0-.207.031-.406.09-.593a.982.982 0 0 1 .054-.923L4.99.488c.24-.397.715-.583 1.16-.49h15.7c.444-.093.92.093 1.16.49l4.846 9.993a.982.982 0 0 1 .054.923c.059.187.09.386.09.592zM2.742 9.997h7.591l1.334-8H6.62zm22.516 0l-3.88-8h-5.045l1.334 8zM2 12.997v16a1 1 0 0 0 1 1h22a1 1 0 0 0 1-1v-16a1 1 0 0 0-1-1h-7v10h-8v-10H3a1 1 0 0 0-1 1zm12-11l-2 8h4zm-2 18h4v-8h-4zm-8 6h4v2H4zm6 0h2v2h-2z"/></g></g></svg>