<svg xmlns="http://www.w3.org/2000/svg" width="13" height="16" viewBox="0 0 13 16"><g><g><path fill="#fff" d="M6.457 15.997c-3.77 0-6.443-2.619-6.443-6.228 0-1.915 1.146-3.979 1.195-4.065a.5.5 0 0 1 .919.117c.003.012.312 1.17.72 1.814.274.433.552.739.864.95-.211-.918-.373-2.299-.11-3.716C4.326.977 7.383.046 7.514.009a.5.5 0 0 1 .629.576c-.005.027-.51 2.751.562 5.072.097.211.233.457.379.702.041-.337.106-.694.205-1.042.393-1.377 1.409-1.848 1.452-1.867a.497.497 0 0 1 .514.063.503.503 0 0 1 .182.486c-.005.034-.147.97.65 2.3.718 1.2.925 1.979.925 3.47 0 3.61-2.756 6.228-6.555 6.228zM1.571 7.3c-.274.694-.557 1.616-.557 2.47 0 3.029 2.253 5.226 5.443 5.226 3.219 0 5.555-2.197 5.555-5.226 0-1.307-.16-1.914-.783-2.954a5.679 5.679 0 0 1-.72-1.816c-.1.16-.191.356-.258.593-.305 1.067-.228 2.316-.227 2.328a.5.5 0 0 1-.908.323C9.08 8.19 8.19 6.928 7.798 6.079c-.814-1.763-.8-3.67-.718-4.767-.824.48-2.088 1.555-2.494 3.74-.396 2.126.373 4.252.38 4.273a.5.5 0 1 1-.583.667c-.062-.014-1.469-.382-2.38-1.82a5.682 5.682 0 0 1-.432-.873z"/></g></g></svg>