<svg xmlns="http://www.w3.org/2000/svg" width="14" height="14" viewBox="0 0 14 14"><g><g><path fill="#3c4042" d="M14.001 1v4a1 1 0 0 1-1 1H9a1 1 0 0 1-1-1V1a1 1 0 0 1 1-1h4a1 1 0 0 1 1 1zm0 8v4a1 1 0 0 1-1 1H9a1 1 0 0 1-1-1V9a1 1 0 0 1 1-1h4a1 1 0 0 1 1 1zm-8-8v4a1 1 0 0 1-1 1h-4a1 1 0 0 1-1-1V1a1 1 0 0 1 1-1h4a1 1 0 0 1 1 1zm0 8v4a1 1 0 0 1-1 1h-4a1 1 0 0 1-1-1V9a1 1 0 0 1 1-1h4a1 1 0 0 1 1 1zm6.5-8h-3a.5.5 0 0 0-.5.5v3a.5.5 0 0 0 .5.5h3a.5.5 0 0 0 .5-.5v-3a.5.5 0 0 0-.5-.5zm0 8h-3a.5.5 0 0 0-.5.5v3a.5.5 0 0 0 .5.5h3a.5.5 0 0 0 .5-.5v-3a.5.5 0 0 0-.5-.5zm-8-8h-3a.5.5 0 0 0-.5.5v3a.5.5 0 0 0 .5.5h3a.5.5 0 0 0 .5-.5v-3a.5.5 0 0 0-.5-.5zm0 8h-3a.5.5 0 0 0-.5.5v3a.5.5 0 0 0 .5.5h3a.5.5 0 0 0 .5-.5v-3a.5.5 0 0 0-.5-.5z"/></g></g></svg>