<svg xmlns="http://www.w3.org/2000/svg" width="16" height="15" viewBox="0 0 16 15"><g><g><path fill="#3c4042" d="M.5 0h2.95c.27-.04.534.114.606.362l.969 3.637h1.483l2.726-2.701a.97.97 0 0 1 1.406 0l3.054 2.701h1.767a.45.45 0 0 1 .195.011.5.5 0 0 1 .336.61l-2 6.788a.503.503 0 0 1-.436.588.449.449 0 0 1-.162.003H6.55c-.27.039-.534-.115-.606-.363L4.134 4.84a.497.497 0 0 1-.121-.452L3.11.999H.5a.5.5 0 0 1 0-1zm14.388 4.999h-1.576l-.008.008-.01-.008H5.292l1.598 6h6.231zm-2.888 8a1 1 0 1 1 0 2 1 1 0 0 1 0-2zm-5 0a1 1 0 1 1 0 2 1 1 0 0 1 0-2zM9.937 2.027L7.988 4h4.177z"/></g></g></svg>