<svg xmlns="http://www.w3.org/2000/svg" width="14" height="15" viewBox="0 0 14 15"><g><g><path fill="#3c4042" d="M13.996 14.492l-.85.502-2.237-3.64A7.975 7.975 0 0 1 7.76 12a7.994 7.994 0 0 1-3.555-.828l-2.35 3.823-.849-.502 2.343-3.812A8.024 8.024 0 0 1-.004 6h1.035a7.021 7.021 0 0 0 2.842 3.83l2.073-3.374a2.5 2.5 0 0 1 1.055-4.407V0H8v2.05a2.5 2.5 0 0 1 1.055 4.406zM8.175 6.907a2.496 2.496 0 0 1-1.348 0L4.73 10.315a7.007 7.007 0 0 0 3.03.684c.926 0 1.809-.18 2.618-.506zM6.003 4.499a1.5 1.5 0 1 0 0 0z"/></g></g></svg>