<svg xmlns="http://www.w3.org/2000/svg" width="11" height="16" viewBox="0 0 11 16"><g><g><path fill="#3c4042" d="M11 10.998v2a3 3 0 0 1-3 3H3a3 3 0 0 1-3-3v-2c0-1.312.842-2.427 2.016-2.834A5.33 5.33 0 0 1 1 4.998c0-2.761 2.015-5 4.5-5s4.5 2.239 4.5 5a5.33 5.33 0 0 1-1.016 3.166A3.001 3.001 0 0 1 11 10.998zm-10 0v2a2 2 0 0 0 2 2h5a2 2 0 0 0 2-2v-2a2 2 0 0 0-1.81-1.99 4.193 4.193 0 0 1-2.69.99 4.193 4.193 0 0 1-2.69-.99A2 2 0 0 0 1 10.997zm1-6c0 2.21 1.567 4 3.5 4s3.5-1.79 3.5-4c0-2.209-1.567-4-3.5-4S2 2.79 2 4.998z"/></g></g></svg>